<svg width="29" height="28" viewBox="0 0 29 28" fill="none" xmlns="http://www.w3.org/2000/svg">
<ellipse cx="14.6981" cy="14.0653" rx="13.7255" ry="13.7255" fill="#E42877"/>
<path d="M19.8426 8.30078C15.5995 8.30078 14.8301 11.0531 14.8301 14.0655C14.8301 17.0779 15.5776 19.8302 19.8426 19.8302C24.0856 19.8302 24.8331 17.0779 24.8331 14.0655C24.855 11.0531 24.1076 8.30078 19.8426 8.30078ZM19.8426 17.1862C18.1717 17.1862 17.9299 16.0376 17.9299 14.1955C17.9299 12.3534 18.1717 11.2265 19.8426 11.2265C21.5134 11.2265 21.7332 12.3751 21.7332 14.1955C21.7552 16.0376 21.5134 17.1862 19.8426 17.1862Z" fill="white"/>
<path d="M8.98189 15.3441H10.9605V15.5392C10.9605 16.7745 11.0045 17.3379 9.48754 17.3379C8.08053 17.3379 7.59687 16.7094 7.59687 14.1522C7.59687 11.5082 8.38831 11.1831 9.59746 11.1831C10.4988 11.1831 11.1144 11.4215 11.642 11.7033L13.2689 9.18933C12.4335 8.6692 11.1803 8.30078 9.75135 8.30078C5.81612 8.30078 4.54102 10.1646 4.54102 14.0655C4.54102 17.468 5.46437 19.8302 9.20174 19.8302C9.86128 19.8302 10.4329 19.7868 10.9165 19.7002H13.7306V14.9974V12.9169H9.31166L8.98189 15.3441Z" fill="white"/>
</svg>
